<?xml version="1.0" encoding="utf-8"?>
<!-- Generator: Adobe Illustrator 26.0.1, SVG Export Plug-In . SVG Version: 6.00 Build 0)  -->
<svg version="1.1" id="Layer_1" xmlns="http://www.w3.org/2000/svg" xmlns:xlink="http://www.w3.org/1999/xlink" x="0px" y="0px"
	 viewBox="0 0 1000 1000" style="enable-background:new 0 0 1000 1000;" xml:space="preserve">
<style type="text/css">
	.st0{fill:#FFFFFF;}
</style>
<path class="st0" d="M648,358.2c-58.7-73.7-141.4-71.4-145.2-71.3c-2.6-0.1-86.1-3-145.3,71.3c-60.1,75.5-28,160.8-28,160.8
	s12.6,30.8,29.4,53.1s41.9,75.5,48.9,118.8s32.1,41.9,32.1,41.9h125.6c0,0,25.2,1.4,32.2-41.9s32.2-96.5,48.9-118.8
	s29.3-53.1,29.3-53.1S708.1,433.7,648,358.2z M618.6,569.3c-19.6,29.4-43.7,90.4-47.5,107.6c-5.6,25.2-14,23.8-14,23.8V559.5
	c0,0,55.9-28,55.9-95.1s-57.3-92.3-57.3-92.3v81.1c0,19.6-21.7,25.9-21.7,25.9h-62.7c0,0-21.7-6.3-21.7-25.9v-81.1
	c0,0-57.3,25.2-57.3,92.3s55.9,95.1,55.9,95.1v141.2c0,0-8.4,1.4-14-23.8c-3.8-17.3-28-78.3-47.5-107.6s-68.5-103.5-12.6-187.3
	c0,0,35-62.9,128.6-65.7c93.7,2.8,128.4,65.7,128.4,65.7C687.1,465.8,638.2,539.9,618.6,569.3z"/>
<path class="st0" d="M556.7,746.8h-112c-1.1,0-2.1,0.6-2.6,1.5l-8.5,10.2c-0.6,0.9-0.6,2.1,0,3l8.4,10.2c0.5,0.9,1.6,1.5,2.6,1.5
	h112c1.1,0,2.1-0.6,2.6-1.5l8.5-10.2c0.6-0.9,0.6-2.1,0-3l-8.5-10.2C558.7,747.4,557.8,746.8,556.7,746.8z"/>
<path class="st0" d="M548.8,783.6h-96.2c-0.9,0-1.8,0.5-2.3,1.3l-7.3,8.8c-0.5,0.8-0.5,1.8,0,2.6l7.3,8.8c0.5,0.8,1.3,1.3,2.3,1.3
	h96.2c0.9,0,1.8-0.5,2.3-1.3l7.3-8.8c0.5-0.8,0.5-1.8,0-2.6l-7.3-8.8C550.6,784.1,549.7,783.6,548.8,783.6z"/>
<path class="st0" d="M500.7,819.5h49.6c0,16.9-22.4,30.8-49.6,30.8s-49.6-13.9-49.6-30.8v-0.1L500.7,819.5z"/>
<path class="st0" d="M515.4,239.6v-78.8c0-2-1-3.8-2.6-4.9l-7.3-5c-2.1-1.4-4.8-1.4-6.8,0l-7.3,5c-1.6,1.1-2.6,3-2.6,4.9v78.8
	c0,2,1,3.8,2.6,4.9l7.3,5c2.1,1.4,4.8,1.4,6.8,0l7.3-5C514.4,243.4,515.4,241.6,515.4,239.6z"/>
<path class="st0" d="M273.1,456h-78.8c-2,0-3.8,1-4.9,2.6l-5,7.3c-1.4,2-1.4,4.8,0,6.8l5,7.3c1.1,1.6,3,2.6,4.9,2.6h78.8
	c1.9,0,3.8-1,4.9-2.6l5-7.3c1.4-2,1.4-4.8,0-6.8l-5-7.3C276.9,457,275.1,456,273.1,456z"/>
<path class="st0" d="M805.7,456h-78.8c-2,0-3.8,1-4.9,2.6l-5,7.3c-1.4,2-1.4,4.8,0,6.8l5,7.3c1.1,1.6,3,2.6,4.9,2.6h78.8
	c2,0,3.8-1,4.9-2.6l5-7.3c1.4-2,1.4-4.8,0-6.8l-5-7.3C809.5,457,807.7,456,805.7,456z"/>
<path class="st0" d="M725.3,673.7L669.5,618c-1.4-1.4-3.4-2-5.3-1.7l-8.7,1.6c-2.4,0.4-4.4,2.4-4.8,4.8l-1.6,8.7
	c-0.4,1.9,0.3,3.9,1.7,5.3l55.8,55.7c1.4,1.4,3.4,2,5.3,1.7l8.7-1.6c2.4-0.4,4.4-2.4,4.8-4.8l1.6-8.7
	C727.3,677.1,726.7,675.1,725.3,673.7z"/>
<path class="st0" d="M706.5,241.9l-55.8,55.7c-1.4,1.4-2,3.4-1.7,5.3l1.6,8.7c0.5,2.4,2.4,4.4,4.8,4.8l8.7,1.6
	c1.9,0.4,3.9-0.3,5.3-1.7l55.8-55.7c1.4-1.4,2-3.4,1.7-5.3l-1.6-8.7c-0.5-2.4-2.4-4.4-4.8-4.8l-8.7-1.6
	C709.9,239.9,707.9,240.5,706.5,241.9z"/>
<path class="st0" d="M349.2,297.7l-55.8-55.7c-1.4-1.4-3.4-2-5.3-1.7l-8.7,1.6c-2.4,0.4-4.4,2.4-4.8,4.8l-1.6,8.7
	c-0.4,1.9,0.3,3.9,1.6,5.3l55.8,55.7c1.4,1.4,3.4,2,5.3,1.7l8.7-1.6c2.4-0.4,4.4-2.4,4.8-4.8l1.6-8.7
	C351.3,301,350.6,299.1,349.2,297.7z"/>
<path class="st0" d="M330.5,618l-55.8,55.8c-1.4,1.4-2,3.4-1.6,5.3l1.6,8.7c0.5,2.4,2.4,4.4,4.8,4.8l8.7,1.6
	c1.9,0.4,3.9-0.3,5.3-1.7l55.8-55.7c1.4-1.4,2-3.4,1.7-5.3l-1.6-8.7c-0.5-2.4-2.4-4.4-4.8-4.8l-8.7-1.6
	C333.8,616,331.9,616.6,330.5,618z"/>
</svg>
